REM MD5 ac121918703702d20f0df14c9fcca39e
FILE "Hugo - Frog Fighter (Europe) (En,Fr,De,Es,It,Nl,Pt,Sv,No,Da,Fi).bin" BINARY
  TRACK 01 MODE2/2352
    INDEX 01 00:00:00
  TRACK 02 AUDIO
    INDEX 00 07:18:70
    INDEX 01 07:20:70
  TRACK 03 AUDIO
    INDEX 00 10:15:67
    INDEX 01 10:17:67
  TRACK 04 AUDIO
    INDEX 00 11:19:27
    INDEX 01 11:21:27
  TRACK 05 AUDIO
    INDEX 00 13:53:10
    INDEX 01 13:55:10
  TRACK 06 AUDIO
    INDEX 00 14:57:30
    INDEX 01 14:59:30
REM LEADOUT 18:26:40
